#!OML:ASF F:\VICON\USERDATA\INSTALL\rory3\rory3.ASF
:FULLY-SPECIFIED
:DEGREES
3259
root 10.5581 17.7185 0.187921 -902.521 -35.9152 179.949
lowerback 13.5331 1.34893 2.65578
upperback 0.644614 2.21191 1.78893
thorax -6.88447 0.973111 -0.0244225
lowerneck -20.971 -1.41674 -11.3156
upperneck 33.7083 -0.946059 4.97298
head 15.4544 -1.649 3.77051
rclavicle 5.60076e-014 2.38542e-014
rhumerus -37.8903 -19.8366 -69.2456
rradius 24.8949
rwrist 9.83422
rhand -18.1886 9.84652
rfingers 7.12502
rthumb 8.08831 -19.9787
lclavicle 5.60076e-014 2.38542e-014
lhumerus -29.608 6.26902 82.1071
lradius 36.9634
lwrist -3.04247
lhand -20.8881 24.1624
lfingers 7.12502
lthumb 5.4824 54.0714
rfemur -7.08896 -8.53297 21.1614
rtibia 33.4883
rfoot -20.8574 -1.13413
rtoes -0.274056
lfemur -8.9355 -3.01857 -18.1118
ltibia 35.2459
lfoot -19.6165 -16.1317
ltoes -15.3303
3260
root 10.5384 17.7259 0.203316 -902.68 -35.6027 180.104
lowerback 13.5866 1.38041 2.77085
upperback 0.707272 2.26833 1.82492
thorax -6.84348 0.995976 -0.0622084
lowerneck -21.0261 -1.3662 -11.3258
upperneck 33.7248 -0.903764 5.0963
head 15.469 -1.61503 3.8349
rclavicle -1.11916e-013 -2.78299e-014
rhumerus -37.6843 -20.0108 -69.1936
rradius 24.9153
rwrist 10.059
rhand -18.441 9.61455
rfingers 7.12502
rthumb 7.84467 -20.2199
lclavicle -1.11916e-013 -2.78299e-014
lhumerus -29.9045 5.64679 82.4014
lradius 37.3619
lwrist -2.69805
lhand -20.399 24.3673
lfingers 7.12502
lthumb 5.95465 54.2636
rfemur -6.87793 -8.00484 21.2967
rtibia 33.1524
rfoot -20.5937 -1.38168
rtoes -0.195227
lfemur -8.96864 -3.1936 -17.6854
ltibia 35.4564
lfoot -19.7315 -16.1351
ltoes -15.2416
3261
root 10.5144 17.7365 0.222294 -902.764 -35.2563 180.131
lowerback 13.7055 1.43906 2.8502
upperback 0.723645 2.35937 1.8084
thorax -6.88684 1.03592 -0.144457
lowerneck -20.9745 -1.32521 -11.2551
upperneck 33.7347 -0.883833 5.09504
head 15.458 -1.60054 3.82511
rclavicle -2.23633e-014 -4.45278e-014
rhumerus -37.6004 -20.2891 -69.0652
rradius 25.0806
rwrist 10.0489
rhand -18.5116 9.33917
rfingers 7.12502
rthumb 7.77652 -20.4978
lclavicle -2.23633e-014 -4.45278e-014
lhumerus -30.1988 5.13055 82.6515
lradius 37.6064
lwrist -2.68187
lhand -20.5483 24.3194
lfingers 7.12502
lthumb 5.81051 54.2197
rfemur -6.65889 -7.52176 21.2811
rtibia 32.8197
rfoot -20.3176 -1.5192
rtoes 0.0266552
lfemur -8.97819 -3.48167 -17.4015
ltibia 35.6688
lfoot -20.1866 -15.1386
ltoes -16.0891
3262
root 10.4882 17.7467 0.241284 -902.82 -34.9218 180.083
lowerback 13.8533 1.49308 2.86598
upperback 0.741778 2.43537 1.78449
thorax -6.94685 1.0702 -0.196914
lowerneck -20.9449 -1.30172 -11.2123
upperneck 33.7143 -0.867958 5.08802
head 15.4387 -1.58912 3.81645
rclavicle 8.34896e-015 -2.3059e-014
rhumerus -37.5351 -20.5246 -68.9495
rradius 25.302
rwrist 9.88367
rhand -18.8256 9.59131
rfingers 7.12502
rthumb 7.47348 -20.2567
lclavicle 8.34896e-015 -2.3059e-014
lhumerus -30.4171 4.78898 82.8728
lradius 37.6777
lwrist -3.01033
lhand -20.9395 24.0792
lfingers 7.12502
lthumb 5.43276 53.9895
rfemur -6.41404 -7.10219 21.1708
rtibia 32.496
rfoot -19.9985 -1.61324
rtoes -0.225868
lfemur -8.97676 -3.72609 -17.1618
ltibia 35.8591
lfoot -20.4244 -13.6742
ltoes -16.9045
3263
root 10.4613 17.7563 0.259134 -902.806 -34.6346 180.03
lowerback 13.9252 1.48576 2.88056
upperback 0.750735 2.4267 1.73343
thorax -6.97466 1.06416 -0.259368
lowerneck -20.93 -1.24163 -11.1348
upperneck 33.6593 -0.823481 5.136
head 15.402 -1.55013 3.83021
rclavicle 5.12864e-014 -3.73715e-014
rhumerus -37.3228 -20.6424 -69.0025
rradius 25.38
rwrist 9.68023
rhand -18.9939 9.81196
rfingers 7.12502
rthumb 7.31102 -20.0417
lclavicle 5.12864e-014 -3.73715e-014
lhumerus -30.6481 4.30401 83.0164
lradius 37.7411
lwrist -3.17006
lhand -20.9686 24.1393
lfingers 7.12502
lthumb 5.40466 54.0504
rfemur -6.25881 -6.73487 21.0532
rtibia 32.1813
rfoot -19.7627 -1.74443
rtoes -0.786585
lfemur -9.05736 -4.02172 -16.901
ltibia 36.0055
lfoot -20.2511 -12.0497
ltoes -16.4021
3264
root 10.434 17.7696 0.274092 -902.837 -34.4194 180.003
lowerback 13.9909 1.42918 2.87469
upperback 0.776879 2.3489 1.70711
thorax -6.98418 1.02528 -0.270182
lowerneck -20.8658 -1.1691 -11.0806
upperneck 33.5369 -0.750598 5.18043
head 15.319 -1.49887 3.84903
rclavicle -6.29153e-014 2.38542e-015
rhumerus -36.9982 -20.5483 -69.1809
rradius 25.4689
rwrist 9.25111
rhand -18.7147 9.2722
rfingers 7.12502
rthumb 7.58056 -20.5719
lclavicle -6.29153e-014 2.38542e-015
lhumerus -30.7144 4.23669 83.0794
lradius 37.4762
lwrist -3.69082
lhand -20.9433 23.6382
lfingers 7.12502
lthumb 5.42909 53.5487
rfemur -6.04354 -6.55757 20.9053
rtibia 31.8355
rfoot -19.6022 -1.58746
rtoes -0.696854
lfemur -9.10114 -4.28095 -16.6243
ltibia 36.1235
lfoot -20.0766 -10.1943
ltoes -16.2534
3265
root 10.4079 17.7847 0.286357 -902.9 -34.2276 179.95
lowerback 14.0422 1.4081 2.80607
upperback 0.852113 2.3053 1.70708
thorax -6.93596 1.00555 -0.223364
lowerneck -20.8693 -1.14953 -11.088
upperneck 33.4655 -0.710851 5.1826
head 15.2815 -1.47772 3.85651
rclavicle -7.00716e-015 -1.98785e-014
rhumerus -36.755 -20.507 -69.3056
rradius 25.7781
rwrist 8.84486
rhand -18.557 8.8441
rfingers 7.12502
rthumb 7.73276 -20.9945
lclavicle -7.00716e-015 -1.98785e-014
lhumerus -30.669 4.40885 83.1601
lradius 37.1369
lwrist -4.63678
lhand -20.7593 23.0065
lfingers 7.12502
lthumb 5.60671 52.9124
rfemur -5.77195 -6.28135 20.7503
rtibia 31.5034
rfoot -19.4701 -1.50171
rtoes -0.466709
lfemur -9.06727 -4.36708 -16.3278
ltibia 36.1613
lfoot -19.7544 -8.50501
ltoes -15.9229
3266
root 10.378 17.8007 0.300753 -902.973 -34.0375 179.969
lowerback 14.1151 1.37589 2.90134
upperback 0.887288 2.27415 1.66996
thorax -6.93431 0.985891 -0.311566
lowerneck -20.9128 -1.13659 -11.0749
upperneck 33.4497 -0.684883 5.17427
head 15.281 -1.46469 3.85545
rclavicle -2.71838e-014 5.56597e-015
rhumerus -36.6544 -20.6875 -69.3845
rradius 26.1712
rwrist 8.64132
rhand -18.4598 8.68758
rfingers 7.12502
rthumb 7.8266 -21.1476
lclavicle -2.71838e-014 5.56597e-015
lhumerus -30.7981 4.24148 83.213
lradius 37.0215
lwrist -5.3498
lhand -20.4248 22.378
lfingers 7.12502
lthumb 5.92969 52.275
rfemur -5.52802 -5.91458 20.6796
rtibia 31.1945
rfoot -19.3594 -1.59036
rtoes -0.411316
lfemur -9.07967 -4.40285 -15.9557
ltibia 36.1228
lfoot -19.1812 -6.81329
ltoes -15.3931
3267
root 10.3443 17.8153 0.318597 -902.801 -33.8246 179.722
lowerback 14.1946 1.34232 2.85739
upperback 0.841173 2.22236 1.52839
thorax -7.02507 0.960344 -0.429514
lowerneck -20.9906 -1.09431 -11.0764
upperneck 33.5333 -0.644887 5.2415
head 15.3329 -1.44457 3.89526
rclavicle 9.9442e-014 2.14687e-014
rhumerus -36.5744 -20.5422 -69.6736
rradius 26.6352
rwrist 7.96992
rhand -18.3604 8.32163
rfingers 7.12502
rthumb 7.92254 -21.5099
lclavicle 9.9442e-014 2.14687e-014
lhumerus -31.0773 3.81695 83.2237
lradius 36.9903
lwrist -5.7713
lhand -19.9439 21.7999
lfingers 7.12502
lthumb 6.39402 51.6834
rfemur -5.42922 -5.82751 20.2977
rtibia 30.9145
rfoot -19.329 -1.4055
rtoes -0.316142
lfemur -9.14719 -4.45479 -15.8333
ltibia 36.0326
lfoot -18.5597 -5.10767
ltoes -15.3883
3268
root 10.3111 17.8233 0.33937 -902.621 -33.6688 179.425
lowerback 14.2835 1.31843 2.73512
upperback 0.805021 2.17186 1.4199
thorax -7.11491 0.938043 -0.468583
lowerneck -21.0299 -1.06839 -11.158
upperneck 33.6096 -0.616845 5.34153
head 15.3747 -1.43561 3.96032
rclavicle 9.43233e-014 7.95139e-016
rhumerus -36.4548 -20.2719 -69.9405
rradius 27.0838
rwrist 7.02051
rhand -18.4311 8.21839
rfingers 7.12502
rthumb 7.85428 -21.6157
lclavicle 9.43233e-014 7.95139e-016
lhumerus -31.2443 3.91254 83.2124
lradius 36.7676
lwrist -6.55658
lhand -19.623 21.6311
lfingers 7.12502
lthumb 6.70373 51.5049
rfemur -5.32128 -5.89922 19.8352
rtibia 30.6359
rfoot -19.2764 -1.08387
rtoes -0.0664054
lfemur -9.18895 -4.54419 -15.7307
ltibia 35.9252
lfoot -18.0984 -3.87122
ltoes -15.0573
3269
root 10.2768 17.8317 0.356459 -902.587 -33.5181 179.408
lowerback 14.2935 1.29903 2.82231
upperback 0.767055 2.15987 1.3594
thorax -7.15587 0.928609 -0.580341
lowerneck -20.9987 -1.06278 -11.1756
upperneck 33.6377 -0.624666 5.36754
head 15.3815 -1.44188 3.97315
rclavicle -3.47873e-015 5.56597e-014
rhumerus -36.4721 -20.2797 -70.0807
rradius 27.5129
rwrist 6.72374
rhand -18.6506 8.36777
rfingers 7.12502
rthumb 7.64245 -21.4741
lclavicle -3.47873e-015 5.56597e-014
lhumerus -31.3912 4.11498 83.1419
lradius 36.5011
lwrist -7.39715
lhand -19.338 21.7926
lfingers 7.12502
lthumb 6.97884 51.6576
rfemur -5.19726 -6.01114 19.6455
rtibia 30.3897
rfoot -19.2759 -0.93437
rtoes -0.905888
lfemur -9.25155 -4.55202 -15.336
ltibia 35.7663
lfoot -17.7059 -3.17876
ltoes -13.9081
